<mxfile host="app.diagrams.net" agent="Mozilla/5.0 (Windows NT 10.0; Win64; x64) AppleWebKit/537.36 (KHTML, like Gecko) Chrome/131.0.0.0 Safari/537.36" version="25.0.1">
  <diagram name="Seite-1" id="n1eNx7vwSBhl9TGJpPgQ">
    <mxGraphModel dx="1050" dy="1691" grid="1" gridSize="10" guides="1" tooltips="1" connect="1" arrows="1" fold="1" page="1" pageScale="1" pageWidth="827" pageHeight="1169" math="0" shadow="0">
      <root>
        <mxCell id="0" />
        <mxCell id="1" parent="0" />
        <mxCell id="Dd918ebrh1rIjE-GMe-v-7" value="" style="endArrow=classic;html=1;rounded=0;exitX=1;exitY=0.5;exitDx=0;exitDy=0;entryX=0;entryY=0.5;entryDx=0;entryDy=0;" edge="1" parent="1" source="Dd918ebrh1rIjE-GMe-v-2" target="Dd918ebrh1rIjE-GMe-v-4">
          <mxGeometry width="50" height="50" relative="1" as="geometry">
            <mxPoint x="390" y="590" as="sourcePoint" />
            <mxPoint x="440" y="540" as="targetPoint" />
          </mxGeometry>
        </mxCell>
        <mxCell id="Dd918ebrh1rIjE-GMe-v-10" value="" style="endArrow=classic;html=1;rounded=0;exitX=1;exitY=0.5;exitDx=0;exitDy=0;entryX=0;entryY=0.5;entryDx=0;entryDy=0;" edge="1" parent="1" source="Dd918ebrh1rIjE-GMe-v-4" target="Dd918ebrh1rIjE-GMe-v-6">
          <mxGeometry width="50" height="50" relative="1" as="geometry">
            <mxPoint x="490" y="270" as="sourcePoint" />
            <mxPoint x="540" y="220" as="targetPoint" />
          </mxGeometry>
        </mxCell>
        <mxCell id="Dd918ebrh1rIjE-GMe-v-123" value="" style="group" vertex="1" connectable="0" parent="1">
          <mxGeometry x="95" y="380" width="170" height="170" as="geometry" />
        </mxCell>
        <mxCell id="Dd918ebrh1rIjE-GMe-v-2" value="101" style="ellipse;whiteSpace=wrap;html=1;aspect=fixed;" vertex="1" parent="Dd918ebrh1rIjE-GMe-v-123">
          <mxGeometry width="170" height="170" as="geometry" />
        </mxCell>
        <mxCell id="Dd918ebrh1rIjE-GMe-v-93" value="" style="shape=table;startSize=0;container=1;collapsible=0;childLayout=tableLayout;fontSize=16;" vertex="1" parent="Dd918ebrh1rIjE-GMe-v-123">
          <mxGeometry x="25" y="25" width="120" height="120" as="geometry" />
        </mxCell>
        <mxCell id="Dd918ebrh1rIjE-GMe-v-94" value="" style="shape=tableRow;horizontal=0;startSize=0;swimlaneHead=0;swimlaneBody=0;strokeColor=inherit;top=0;left=0;bottom=0;right=0;collapsible=0;dropTarget=0;fillColor=none;points=[[0,0.5],[1,0.5]];portConstraint=eastwest;fontSize=16;" vertex="1" parent="Dd918ebrh1rIjE-GMe-v-93">
          <mxGeometry width="120" height="40" as="geometry" />
        </mxCell>
        <mxCell id="Dd918ebrh1rIjE-GMe-v-95" value="0" style="shape=partialRectangle;html=1;whiteSpace=wrap;connectable=0;strokeColor=inherit;overflow=hidden;fillColor=none;top=0;left=0;bottom=0;right=0;pointerEvents=1;fontSize=16;" vertex="1" parent="Dd918ebrh1rIjE-GMe-v-94">
          <mxGeometry width="60" height="40" as="geometry">
            <mxRectangle width="60" height="40" as="alternateBounds" />
          </mxGeometry>
        </mxCell>
        <mxCell id="Dd918ebrh1rIjE-GMe-v-96" value="3" style="shape=partialRectangle;html=1;whiteSpace=wrap;connectable=0;strokeColor=inherit;overflow=hidden;fillColor=none;top=0;left=0;bottom=0;right=0;pointerEvents=1;fontSize=16;" vertex="1" parent="Dd918ebrh1rIjE-GMe-v-94">
          <mxGeometry x="60" width="60" height="40" as="geometry">
            <mxRectangle width="60" height="40" as="alternateBounds" />
          </mxGeometry>
        </mxCell>
        <mxCell id="Dd918ebrh1rIjE-GMe-v-97" style="shape=tableRow;horizontal=0;startSize=0;swimlaneHead=0;swimlaneBody=0;strokeColor=inherit;top=0;left=0;bottom=0;right=0;collapsible=0;dropTarget=0;fillColor=none;points=[[0,0.5],[1,0.5]];portConstraint=eastwest;fontSize=16;" vertex="1" parent="Dd918ebrh1rIjE-GMe-v-93">
          <mxGeometry y="40" width="120" height="40" as="geometry" />
        </mxCell>
        <mxCell id="Dd918ebrh1rIjE-GMe-v-98" value="&lt;b&gt;101&lt;/b&gt;" style="shape=partialRectangle;html=1;whiteSpace=wrap;connectable=0;strokeColor=inherit;overflow=hidden;fillColor=none;top=0;left=0;bottom=0;right=0;pointerEvents=1;fontSize=16;" vertex="1" parent="Dd918ebrh1rIjE-GMe-v-97">
          <mxGeometry width="60" height="40" as="geometry">
            <mxRectangle width="60" height="40" as="alternateBounds" />
          </mxGeometry>
        </mxCell>
        <mxCell id="Dd918ebrh1rIjE-GMe-v-99" value="3" style="shape=partialRectangle;html=1;whiteSpace=wrap;connectable=0;strokeColor=inherit;overflow=hidden;fillColor=none;top=0;left=0;bottom=0;right=0;pointerEvents=1;fontSize=16;" vertex="1" parent="Dd918ebrh1rIjE-GMe-v-97">
          <mxGeometry x="60" width="60" height="40" as="geometry">
            <mxRectangle width="60" height="40" as="alternateBounds" />
          </mxGeometry>
        </mxCell>
        <mxCell id="Dd918ebrh1rIjE-GMe-v-100" value="" style="shape=tableRow;horizontal=0;startSize=0;swimlaneHead=0;swimlaneBody=0;strokeColor=inherit;top=0;left=0;bottom=0;right=0;collapsible=0;dropTarget=0;fillColor=none;points=[[0,0.5],[1,0.5]];portConstraint=eastwest;fontSize=16;" vertex="1" parent="Dd918ebrh1rIjE-GMe-v-93">
          <mxGeometry y="80" width="120" height="40" as="geometry" />
        </mxCell>
        <mxCell id="Dd918ebrh1rIjE-GMe-v-101" value="3" style="shape=partialRectangle;html=1;whiteSpace=wrap;connectable=0;strokeColor=inherit;overflow=hidden;fillColor=none;top=0;left=0;bottom=0;right=0;pointerEvents=1;fontSize=16;" vertex="1" parent="Dd918ebrh1rIjE-GMe-v-100">
          <mxGeometry width="60" height="40" as="geometry">
            <mxRectangle width="60" height="40" as="alternateBounds" />
          </mxGeometry>
        </mxCell>
        <mxCell id="Dd918ebrh1rIjE-GMe-v-102" value="6" style="shape=partialRectangle;html=1;whiteSpace=wrap;connectable=0;strokeColor=inherit;overflow=hidden;fillColor=none;top=0;left=0;bottom=0;right=0;pointerEvents=1;fontSize=16;" vertex="1" parent="Dd918ebrh1rIjE-GMe-v-100">
          <mxGeometry x="60" width="60" height="40" as="geometry">
            <mxRectangle width="60" height="40" as="alternateBounds" />
          </mxGeometry>
        </mxCell>
        <mxCell id="Dd918ebrh1rIjE-GMe-v-124" value="" style="group" vertex="1" connectable="0" parent="1">
          <mxGeometry x="630" y="300" width="180" height="180" as="geometry" />
        </mxCell>
        <mxCell id="Dd918ebrh1rIjE-GMe-v-4" value="103" style="ellipse;whiteSpace=wrap;html=1;aspect=fixed;" vertex="1" parent="Dd918ebrh1rIjE-GMe-v-124">
          <mxGeometry width="180" height="180" as="geometry" />
        </mxCell>
        <mxCell id="Dd918ebrh1rIjE-GMe-v-113" value="" style="shape=table;startSize=0;container=1;collapsible=0;childLayout=tableLayout;fontSize=16;" vertex="1" parent="Dd918ebrh1rIjE-GMe-v-124">
          <mxGeometry x="30" y="30" width="120" height="120" as="geometry" />
        </mxCell>
        <mxCell id="Dd918ebrh1rIjE-GMe-v-114" value="" style="shape=tableRow;horizontal=0;startSize=0;swimlaneHead=0;swimlaneBody=0;strokeColor=inherit;top=0;left=0;bottom=0;right=0;collapsible=0;dropTarget=0;fillColor=none;points=[[0,0.5],[1,0.5]];portConstraint=eastwest;fontSize=16;" vertex="1" parent="Dd918ebrh1rIjE-GMe-v-113">
          <mxGeometry width="120" height="40" as="geometry" />
        </mxCell>
        <mxCell id="Dd918ebrh1rIjE-GMe-v-115" value="3" style="shape=partialRectangle;html=1;whiteSpace=wrap;connectable=0;strokeColor=inherit;overflow=hidden;fillColor=none;top=0;left=0;bottom=0;right=0;pointerEvents=1;fontSize=16;" vertex="1" parent="Dd918ebrh1rIjE-GMe-v-114">
          <mxGeometry width="60" height="40" as="geometry">
            <mxRectangle width="60" height="40" as="alternateBounds" />
          </mxGeometry>
        </mxCell>
        <mxCell id="Dd918ebrh1rIjE-GMe-v-116" value="5" style="shape=partialRectangle;html=1;whiteSpace=wrap;connectable=0;strokeColor=inherit;overflow=hidden;fillColor=none;top=0;left=0;bottom=0;right=0;pointerEvents=1;fontSize=16;" vertex="1" parent="Dd918ebrh1rIjE-GMe-v-114">
          <mxGeometry x="60" width="60" height="40" as="geometry">
            <mxRectangle width="60" height="40" as="alternateBounds" />
          </mxGeometry>
        </mxCell>
        <mxCell id="Dd918ebrh1rIjE-GMe-v-117" style="shape=tableRow;horizontal=0;startSize=0;swimlaneHead=0;swimlaneBody=0;strokeColor=inherit;top=0;left=0;bottom=0;right=0;collapsible=0;dropTarget=0;fillColor=none;points=[[0,0.5],[1,0.5]];portConstraint=eastwest;fontSize=16;" vertex="1" parent="Dd918ebrh1rIjE-GMe-v-113">
          <mxGeometry y="40" width="120" height="40" as="geometry" />
        </mxCell>
        <mxCell id="Dd918ebrh1rIjE-GMe-v-118" value="&lt;b&gt;103&lt;/b&gt;" style="shape=partialRectangle;html=1;whiteSpace=wrap;connectable=0;strokeColor=inherit;overflow=hidden;fillColor=none;top=0;left=0;bottom=0;right=0;pointerEvents=1;fontSize=16;" vertex="1" parent="Dd918ebrh1rIjE-GMe-v-117">
          <mxGeometry width="60" height="40" as="geometry">
            <mxRectangle width="60" height="40" as="alternateBounds" />
          </mxGeometry>
        </mxCell>
        <mxCell id="Dd918ebrh1rIjE-GMe-v-119" value="2" style="shape=partialRectangle;html=1;whiteSpace=wrap;connectable=0;strokeColor=inherit;overflow=hidden;fillColor=none;top=0;left=0;bottom=0;right=0;pointerEvents=1;fontSize=16;" vertex="1" parent="Dd918ebrh1rIjE-GMe-v-117">
          <mxGeometry x="60" width="60" height="40" as="geometry">
            <mxRectangle width="60" height="40" as="alternateBounds" />
          </mxGeometry>
        </mxCell>
        <mxCell id="Dd918ebrh1rIjE-GMe-v-120" value="" style="shape=tableRow;horizontal=0;startSize=0;swimlaneHead=0;swimlaneBody=0;strokeColor=inherit;top=0;left=0;bottom=0;right=0;collapsible=0;dropTarget=0;fillColor=none;points=[[0,0.5],[1,0.5]];portConstraint=eastwest;fontSize=16;" vertex="1" parent="Dd918ebrh1rIjE-GMe-v-113">
          <mxGeometry y="80" width="120" height="40" as="geometry" />
        </mxCell>
        <mxCell id="Dd918ebrh1rIjE-GMe-v-121" value="6" style="shape=partialRectangle;html=1;whiteSpace=wrap;connectable=0;strokeColor=inherit;overflow=hidden;fillColor=none;top=0;left=0;bottom=0;right=0;pointerEvents=1;fontSize=16;" vertex="1" parent="Dd918ebrh1rIjE-GMe-v-120">
          <mxGeometry width="60" height="40" as="geometry">
            <mxRectangle width="60" height="40" as="alternateBounds" />
          </mxGeometry>
        </mxCell>
        <mxCell id="Dd918ebrh1rIjE-GMe-v-122" value="8" style="shape=partialRectangle;html=1;whiteSpace=wrap;connectable=0;strokeColor=inherit;overflow=hidden;fillColor=none;top=0;left=0;bottom=0;right=0;pointerEvents=1;fontSize=16;" vertex="1" parent="Dd918ebrh1rIjE-GMe-v-120">
          <mxGeometry x="60" width="60" height="40" as="geometry">
            <mxRectangle width="60" height="40" as="alternateBounds" />
          </mxGeometry>
        </mxCell>
        <mxCell id="Dd918ebrh1rIjE-GMe-v-125" value="" style="group;fillColor=#f8cecc;strokeColor=#b85450;" vertex="1" connectable="0" parent="1">
          <mxGeometry x="1015" y="295" width="190" height="190" as="geometry" />
        </mxCell>
        <mxCell id="Dd918ebrh1rIjE-GMe-v-6" value="105" style="ellipse;whiteSpace=wrap;html=1;aspect=fixed;" vertex="1" parent="Dd918ebrh1rIjE-GMe-v-125">
          <mxGeometry width="190" height="190" as="geometry" />
        </mxCell>
        <mxCell id="Dd918ebrh1rIjE-GMe-v-53" value="" style="shape=table;startSize=0;container=1;collapsible=0;childLayout=tableLayout;fontSize=16;" vertex="1" parent="Dd918ebrh1rIjE-GMe-v-125">
          <mxGeometry x="30" y="30" width="130" height="130" as="geometry" />
        </mxCell>
        <mxCell id="Dd918ebrh1rIjE-GMe-v-54" value="" style="shape=tableRow;horizontal=0;startSize=0;swimlaneHead=0;swimlaneBody=0;strokeColor=inherit;top=0;left=0;bottom=0;right=0;collapsible=0;dropTarget=0;fillColor=none;points=[[0,0.5],[1,0.5]];portConstraint=eastwest;fontSize=16;" vertex="1" parent="Dd918ebrh1rIjE-GMe-v-53">
          <mxGeometry width="130" height="44" as="geometry" />
        </mxCell>
        <mxCell id="Dd918ebrh1rIjE-GMe-v-55" value="8" style="shape=partialRectangle;html=1;whiteSpace=wrap;connectable=0;strokeColor=inherit;overflow=hidden;fillColor=none;top=0;left=0;bottom=0;right=0;pointerEvents=1;fontSize=16;" vertex="1" parent="Dd918ebrh1rIjE-GMe-v-54">
          <mxGeometry width="66" height="44" as="geometry">
            <mxRectangle width="66" height="44" as="alternateBounds" />
          </mxGeometry>
        </mxCell>
        <mxCell id="Dd918ebrh1rIjE-GMe-v-56" value="20" style="shape=partialRectangle;html=1;whiteSpace=wrap;connectable=0;strokeColor=inherit;overflow=hidden;fillColor=none;top=0;left=0;bottom=0;right=0;pointerEvents=1;fontSize=16;" vertex="1" parent="Dd918ebrh1rIjE-GMe-v-54">
          <mxGeometry x="66" width="64" height="44" as="geometry">
            <mxRectangle width="64" height="44" as="alternateBounds" />
          </mxGeometry>
        </mxCell>
        <mxCell id="Dd918ebrh1rIjE-GMe-v-60" style="shape=tableRow;horizontal=0;startSize=0;swimlaneHead=0;swimlaneBody=0;strokeColor=inherit;top=0;left=0;bottom=0;right=0;collapsible=0;dropTarget=0;fillColor=none;points=[[0,0.5],[1,0.5]];portConstraint=eastwest;fontSize=16;" vertex="1" parent="Dd918ebrh1rIjE-GMe-v-53">
          <mxGeometry y="44" width="130" height="42" as="geometry" />
        </mxCell>
        <mxCell id="Dd918ebrh1rIjE-GMe-v-61" value="&lt;b&gt;105&lt;/b&gt;" style="shape=partialRectangle;html=1;whiteSpace=wrap;connectable=0;strokeColor=inherit;overflow=hidden;fillColor=none;top=0;left=0;bottom=0;right=0;pointerEvents=1;fontSize=16;" vertex="1" parent="Dd918ebrh1rIjE-GMe-v-60">
          <mxGeometry width="66" height="42" as="geometry">
            <mxRectangle width="66" height="42" as="alternateBounds" />
          </mxGeometry>
        </mxCell>
        <mxCell id="Dd918ebrh1rIjE-GMe-v-62" value="12" style="shape=partialRectangle;html=1;whiteSpace=wrap;connectable=0;strokeColor=inherit;overflow=hidden;fillColor=none;top=0;left=0;bottom=0;right=0;pointerEvents=1;fontSize=16;" vertex="1" parent="Dd918ebrh1rIjE-GMe-v-60">
          <mxGeometry x="66" width="64" height="42" as="geometry">
            <mxRectangle width="64" height="42" as="alternateBounds" />
          </mxGeometry>
        </mxCell>
        <mxCell id="Dd918ebrh1rIjE-GMe-v-57" value="" style="shape=tableRow;horizontal=0;startSize=0;swimlaneHead=0;swimlaneBody=0;strokeColor=inherit;top=0;left=0;bottom=0;right=0;collapsible=0;dropTarget=0;fillColor=none;points=[[0,0.5],[1,0.5]];portConstraint=eastwest;fontSize=16;" vertex="1" parent="Dd918ebrh1rIjE-GMe-v-53">
          <mxGeometry y="86" width="130" height="44" as="geometry" />
        </mxCell>
        <mxCell id="Dd918ebrh1rIjE-GMe-v-58" value="8" style="shape=partialRectangle;html=1;whiteSpace=wrap;connectable=0;strokeColor=inherit;overflow=hidden;fillColor=none;top=0;left=0;bottom=0;right=0;pointerEvents=1;fontSize=16;" vertex="1" parent="Dd918ebrh1rIjE-GMe-v-57">
          <mxGeometry width="66" height="44" as="geometry">
            <mxRectangle width="66" height="44" as="alternateBounds" />
          </mxGeometry>
        </mxCell>
        <mxCell id="Dd918ebrh1rIjE-GMe-v-59" value="20" style="shape=partialRectangle;html=1;whiteSpace=wrap;connectable=0;strokeColor=inherit;overflow=hidden;fillColor=none;top=0;left=0;bottom=0;right=0;pointerEvents=1;fontSize=16;" vertex="1" parent="Dd918ebrh1rIjE-GMe-v-57">
          <mxGeometry x="66" width="64" height="44" as="geometry">
            <mxRectangle width="64" height="44" as="alternateBounds" />
          </mxGeometry>
        </mxCell>
        <mxCell id="Dd918ebrh1rIjE-GMe-v-126" value="" style="group" vertex="1" connectable="0" parent="1">
          <mxGeometry x="630" y="-100" width="180" height="180" as="geometry" />
        </mxCell>
        <mxCell id="Dd918ebrh1rIjE-GMe-v-3" value="102" style="ellipse;whiteSpace=wrap;html=1;aspect=fixed;" vertex="1" parent="Dd918ebrh1rIjE-GMe-v-126">
          <mxGeometry width="180" height="180" as="geometry" />
        </mxCell>
        <mxCell id="Dd918ebrh1rIjE-GMe-v-103" value="" style="shape=table;startSize=0;container=1;collapsible=0;childLayout=tableLayout;fontSize=16;" vertex="1" parent="Dd918ebrh1rIjE-GMe-v-126">
          <mxGeometry x="30" y="30" width="120" height="120" as="geometry" />
        </mxCell>
        <mxCell id="Dd918ebrh1rIjE-GMe-v-104" value="" style="shape=tableRow;horizontal=0;startSize=0;swimlaneHead=0;swimlaneBody=0;strokeColor=inherit;top=0;left=0;bottom=0;right=0;collapsible=0;dropTarget=0;fillColor=none;points=[[0,0.5],[1,0.5]];portConstraint=eastwest;fontSize=16;" vertex="1" parent="Dd918ebrh1rIjE-GMe-v-103">
          <mxGeometry width="120" height="40" as="geometry" />
        </mxCell>
        <mxCell id="Dd918ebrh1rIjE-GMe-v-105" value="4" style="shape=partialRectangle;html=1;whiteSpace=wrap;connectable=0;strokeColor=inherit;overflow=hidden;fillColor=none;top=0;left=0;bottom=0;right=0;pointerEvents=1;fontSize=16;" vertex="1" parent="Dd918ebrh1rIjE-GMe-v-104">
          <mxGeometry width="60" height="40" as="geometry">
            <mxRectangle width="60" height="40" as="alternateBounds" />
          </mxGeometry>
        </mxCell>
        <mxCell id="Dd918ebrh1rIjE-GMe-v-106" value="13" style="shape=partialRectangle;html=1;whiteSpace=wrap;connectable=0;strokeColor=inherit;overflow=hidden;fillColor=none;top=0;left=0;bottom=0;right=0;pointerEvents=1;fontSize=16;" vertex="1" parent="Dd918ebrh1rIjE-GMe-v-104">
          <mxGeometry x="60" width="60" height="40" as="geometry">
            <mxRectangle width="60" height="40" as="alternateBounds" />
          </mxGeometry>
        </mxCell>
        <mxCell id="Dd918ebrh1rIjE-GMe-v-107" style="shape=tableRow;horizontal=0;startSize=0;swimlaneHead=0;swimlaneBody=0;strokeColor=inherit;top=0;left=0;bottom=0;right=0;collapsible=0;dropTarget=0;fillColor=none;points=[[0,0.5],[1,0.5]];portConstraint=eastwest;fontSize=16;" vertex="1" parent="Dd918ebrh1rIjE-GMe-v-103">
          <mxGeometry y="40" width="120" height="40" as="geometry" />
        </mxCell>
        <mxCell id="Dd918ebrh1rIjE-GMe-v-108" value="&lt;b&gt;104&lt;/b&gt;" style="shape=partialRectangle;html=1;whiteSpace=wrap;connectable=0;strokeColor=inherit;overflow=hidden;fillColor=none;top=0;left=0;bottom=0;right=0;pointerEvents=1;fontSize=16;" vertex="1" parent="Dd918ebrh1rIjE-GMe-v-107">
          <mxGeometry width="60" height="40" as="geometry">
            <mxRectangle width="60" height="40" as="alternateBounds" />
          </mxGeometry>
        </mxCell>
        <mxCell id="Dd918ebrh1rIjE-GMe-v-109" value="9" style="shape=partialRectangle;html=1;whiteSpace=wrap;connectable=0;strokeColor=inherit;overflow=hidden;fillColor=none;top=0;left=0;bottom=0;right=0;pointerEvents=1;fontSize=16;" vertex="1" parent="Dd918ebrh1rIjE-GMe-v-107">
          <mxGeometry x="60" width="60" height="40" as="geometry">
            <mxRectangle width="60" height="40" as="alternateBounds" />
          </mxGeometry>
        </mxCell>
        <mxCell id="Dd918ebrh1rIjE-GMe-v-110" value="" style="shape=tableRow;horizontal=0;startSize=0;swimlaneHead=0;swimlaneBody=0;strokeColor=inherit;top=0;left=0;bottom=0;right=0;collapsible=0;dropTarget=0;fillColor=none;points=[[0,0.5],[1,0.5]];portConstraint=eastwest;fontSize=16;" vertex="1" parent="Dd918ebrh1rIjE-GMe-v-103">
          <mxGeometry y="80" width="120" height="40" as="geometry" />
        </mxCell>
        <mxCell id="Dd918ebrh1rIjE-GMe-v-111" value="11" style="shape=partialRectangle;html=1;whiteSpace=wrap;connectable=0;strokeColor=inherit;overflow=hidden;fillColor=none;top=0;left=0;bottom=0;right=0;pointerEvents=1;fontSize=16;" vertex="1" parent="Dd918ebrh1rIjE-GMe-v-110">
          <mxGeometry width="60" height="40" as="geometry">
            <mxRectangle width="60" height="40" as="alternateBounds" />
          </mxGeometry>
        </mxCell>
        <mxCell id="Dd918ebrh1rIjE-GMe-v-112" value="20" style="shape=partialRectangle;html=1;whiteSpace=wrap;connectable=0;strokeColor=inherit;overflow=hidden;fillColor=none;top=0;left=0;bottom=0;right=0;pointerEvents=1;fontSize=16;" vertex="1" parent="Dd918ebrh1rIjE-GMe-v-110">
          <mxGeometry x="60" width="60" height="40" as="geometry">
            <mxRectangle width="60" height="40" as="alternateBounds" />
          </mxGeometry>
        </mxCell>
        <mxCell id="Dd918ebrh1rIjE-GMe-v-128" value="" style="group" vertex="1" connectable="0" parent="1">
          <mxGeometry x="90" y="-20" width="180" height="180" as="geometry" />
        </mxCell>
        <mxCell id="Dd918ebrh1rIjE-GMe-v-1" value="100" style="ellipse;whiteSpace=wrap;html=1;aspect=fixed;" vertex="1" parent="Dd918ebrh1rIjE-GMe-v-128">
          <mxGeometry width="180" height="180" as="geometry" />
        </mxCell>
        <mxCell id="Dd918ebrh1rIjE-GMe-v-83" value="" style="shape=table;startSize=0;container=1;collapsible=0;childLayout=tableLayout;fontSize=16;" vertex="1" parent="Dd918ebrh1rIjE-GMe-v-128">
          <mxGeometry x="30" y="30" width="120" height="120" as="geometry" />
        </mxCell>
        <mxCell id="Dd918ebrh1rIjE-GMe-v-84" value="" style="shape=tableRow;horizontal=0;startSize=0;swimlaneHead=0;swimlaneBody=0;strokeColor=inherit;top=0;left=0;bottom=0;right=0;collapsible=0;dropTarget=0;fillColor=none;points=[[0,0.5],[1,0.5]];portConstraint=eastwest;fontSize=16;" vertex="1" parent="Dd918ebrh1rIjE-GMe-v-83">
          <mxGeometry width="120" height="40" as="geometry" />
        </mxCell>
        <mxCell id="Dd918ebrh1rIjE-GMe-v-85" value="0" style="shape=partialRectangle;html=1;whiteSpace=wrap;connectable=0;strokeColor=inherit;overflow=hidden;fillColor=none;top=0;left=0;bottom=0;right=0;pointerEvents=1;fontSize=16;" vertex="1" parent="Dd918ebrh1rIjE-GMe-v-84">
          <mxGeometry width="60" height="40" as="geometry">
            <mxRectangle width="60" height="40" as="alternateBounds" />
          </mxGeometry>
        </mxCell>
        <mxCell id="Dd918ebrh1rIjE-GMe-v-86" value="4" style="shape=partialRectangle;html=1;whiteSpace=wrap;connectable=0;strokeColor=inherit;overflow=hidden;fillColor=none;top=0;left=0;bottom=0;right=0;pointerEvents=1;fontSize=16;" vertex="1" parent="Dd918ebrh1rIjE-GMe-v-84">
          <mxGeometry x="60" width="60" height="40" as="geometry">
            <mxRectangle width="60" height="40" as="alternateBounds" />
          </mxGeometry>
        </mxCell>
        <mxCell id="Dd918ebrh1rIjE-GMe-v-87" style="shape=tableRow;horizontal=0;startSize=0;swimlaneHead=0;swimlaneBody=0;strokeColor=inherit;top=0;left=0;bottom=0;right=0;collapsible=0;dropTarget=0;fillColor=none;points=[[0,0.5],[1,0.5]];portConstraint=eastwest;fontSize=16;" vertex="1" parent="Dd918ebrh1rIjE-GMe-v-83">
          <mxGeometry y="40" width="120" height="40" as="geometry" />
        </mxCell>
        <mxCell id="Dd918ebrh1rIjE-GMe-v-88" value="100" style="shape=partialRectangle;html=1;whiteSpace=wrap;connectable=0;strokeColor=inherit;overflow=hidden;fillColor=none;top=0;left=0;bottom=0;right=0;pointerEvents=1;fontSize=16;fontStyle=1" vertex="1" parent="Dd918ebrh1rIjE-GMe-v-87">
          <mxGeometry width="60" height="40" as="geometry">
            <mxRectangle width="60" height="40" as="alternateBounds" />
          </mxGeometry>
        </mxCell>
        <mxCell id="Dd918ebrh1rIjE-GMe-v-89" value="4" style="shape=partialRectangle;html=1;whiteSpace=wrap;connectable=0;strokeColor=inherit;overflow=hidden;fillColor=none;top=0;left=0;bottom=0;right=0;pointerEvents=1;fontSize=16;" vertex="1" parent="Dd918ebrh1rIjE-GMe-v-87">
          <mxGeometry x="60" width="60" height="40" as="geometry">
            <mxRectangle width="60" height="40" as="alternateBounds" />
          </mxGeometry>
        </mxCell>
        <mxCell id="Dd918ebrh1rIjE-GMe-v-90" value="" style="shape=tableRow;horizontal=0;startSize=0;swimlaneHead=0;swimlaneBody=0;strokeColor=inherit;top=0;left=0;bottom=0;right=0;collapsible=0;dropTarget=0;fillColor=none;points=[[0,0.5],[1,0.5]];portConstraint=eastwest;fontSize=16;" vertex="1" parent="Dd918ebrh1rIjE-GMe-v-83">
          <mxGeometry y="80" width="120" height="40" as="geometry" />
        </mxCell>
        <mxCell id="Dd918ebrh1rIjE-GMe-v-91" value="7" style="shape=partialRectangle;html=1;whiteSpace=wrap;connectable=0;strokeColor=inherit;overflow=hidden;fillColor=none;top=0;left=0;bottom=0;right=0;pointerEvents=1;fontSize=16;" vertex="1" parent="Dd918ebrh1rIjE-GMe-v-90">
          <mxGeometry width="60" height="40" as="geometry">
            <mxRectangle width="60" height="40" as="alternateBounds" />
          </mxGeometry>
        </mxCell>
        <mxCell id="Dd918ebrh1rIjE-GMe-v-92" value="11" style="shape=partialRectangle;html=1;whiteSpace=wrap;connectable=0;strokeColor=inherit;overflow=hidden;fillColor=none;top=0;left=0;bottom=0;right=0;pointerEvents=1;fontSize=16;" vertex="1" parent="Dd918ebrh1rIjE-GMe-v-90">
          <mxGeometry x="60" width="60" height="40" as="geometry">
            <mxRectangle width="60" height="40" as="alternateBounds" />
          </mxGeometry>
        </mxCell>
        <mxCell id="Dd918ebrh1rIjE-GMe-v-129" value="" style="group;fillColor=#f8cecc;strokeColor=#b85450;" vertex="1" connectable="0" parent="1">
          <mxGeometry x="90" y="720" width="180" height="180" as="geometry" />
        </mxCell>
        <mxCell id="Dd918ebrh1rIjE-GMe-v-5" value="104" style="ellipse;whiteSpace=wrap;html=1;aspect=fixed;" vertex="1" parent="Dd918ebrh1rIjE-GMe-v-129">
          <mxGeometry width="180" height="180" as="geometry" />
        </mxCell>
        <mxCell id="Dd918ebrh1rIjE-GMe-v-73" value="" style="shape=table;startSize=0;container=1;collapsible=0;childLayout=tableLayout;fontSize=16;" vertex="1" parent="Dd918ebrh1rIjE-GMe-v-129">
          <mxGeometry x="30" y="30" width="120" height="120" as="geometry" />
        </mxCell>
        <mxCell id="Dd918ebrh1rIjE-GMe-v-74" value="" style="shape=tableRow;horizontal=0;startSize=0;swimlaneHead=0;swimlaneBody=0;strokeColor=inherit;top=0;left=0;bottom=0;right=0;collapsible=0;dropTarget=0;fillColor=none;points=[[0,0.5],[1,0.5]];portConstraint=eastwest;fontSize=16;" vertex="1" parent="Dd918ebrh1rIjE-GMe-v-73">
          <mxGeometry width="120" height="40" as="geometry" />
        </mxCell>
        <mxCell id="Dd918ebrh1rIjE-GMe-v-75" value="0" style="shape=partialRectangle;html=1;whiteSpace=wrap;connectable=0;strokeColor=inherit;overflow=hidden;fillColor=none;top=0;left=0;bottom=0;right=0;pointerEvents=1;fontSize=16;" vertex="1" parent="Dd918ebrh1rIjE-GMe-v-74">
          <mxGeometry width="60" height="40" as="geometry">
            <mxRectangle width="60" height="40" as="alternateBounds" />
          </mxGeometry>
        </mxCell>
        <mxCell id="Dd918ebrh1rIjE-GMe-v-76" value="8" style="shape=partialRectangle;html=1;whiteSpace=wrap;connectable=0;strokeColor=inherit;overflow=hidden;fillColor=none;top=0;left=0;bottom=0;right=0;pointerEvents=1;fontSize=16;" vertex="1" parent="Dd918ebrh1rIjE-GMe-v-74">
          <mxGeometry x="60" width="60" height="40" as="geometry">
            <mxRectangle width="60" height="40" as="alternateBounds" />
          </mxGeometry>
        </mxCell>
        <mxCell id="Dd918ebrh1rIjE-GMe-v-77" style="shape=tableRow;horizontal=0;startSize=0;swimlaneHead=0;swimlaneBody=0;strokeColor=inherit;top=0;left=0;bottom=0;right=0;collapsible=0;dropTarget=0;fillColor=none;points=[[0,0.5],[1,0.5]];portConstraint=eastwest;fontSize=16;" vertex="1" parent="Dd918ebrh1rIjE-GMe-v-73">
          <mxGeometry y="40" width="120" height="40" as="geometry" />
        </mxCell>
        <mxCell id="Dd918ebrh1rIjE-GMe-v-78" value="&lt;b&gt;102&lt;/b&gt;" style="shape=partialRectangle;html=1;whiteSpace=wrap;connectable=0;strokeColor=inherit;overflow=hidden;fillColor=none;top=0;left=0;bottom=0;right=0;pointerEvents=1;fontSize=16;" vertex="1" parent="Dd918ebrh1rIjE-GMe-v-77">
          <mxGeometry width="60" height="40" as="geometry">
            <mxRectangle width="60" height="40" as="alternateBounds" />
          </mxGeometry>
        </mxCell>
        <mxCell id="Dd918ebrh1rIjE-GMe-v-79" value="8" style="shape=partialRectangle;html=1;whiteSpace=wrap;connectable=0;strokeColor=inherit;overflow=hidden;fillColor=none;top=0;left=0;bottom=0;right=0;pointerEvents=1;fontSize=16;" vertex="1" parent="Dd918ebrh1rIjE-GMe-v-77">
          <mxGeometry x="60" width="60" height="40" as="geometry">
            <mxRectangle width="60" height="40" as="alternateBounds" />
          </mxGeometry>
        </mxCell>
        <mxCell id="Dd918ebrh1rIjE-GMe-v-80" value="" style="shape=tableRow;horizontal=0;startSize=0;swimlaneHead=0;swimlaneBody=0;strokeColor=inherit;top=0;left=0;bottom=0;right=0;collapsible=0;dropTarget=0;fillColor=none;points=[[0,0.5],[1,0.5]];portConstraint=eastwest;fontSize=16;" vertex="1" parent="Dd918ebrh1rIjE-GMe-v-73">
          <mxGeometry y="80" width="120" height="40" as="geometry" />
        </mxCell>
        <mxCell id="Dd918ebrh1rIjE-GMe-v-81" value="0" style="shape=partialRectangle;html=1;whiteSpace=wrap;connectable=0;strokeColor=inherit;overflow=hidden;fillColor=none;top=0;left=0;bottom=0;right=0;pointerEvents=1;fontSize=16;" vertex="1" parent="Dd918ebrh1rIjE-GMe-v-80">
          <mxGeometry width="60" height="40" as="geometry">
            <mxRectangle width="60" height="40" as="alternateBounds" />
          </mxGeometry>
        </mxCell>
        <mxCell id="Dd918ebrh1rIjE-GMe-v-82" value="8" style="shape=partialRectangle;html=1;whiteSpace=wrap;connectable=0;strokeColor=inherit;overflow=hidden;fillColor=none;top=0;left=0;bottom=0;right=0;pointerEvents=1;fontSize=16;" vertex="1" parent="Dd918ebrh1rIjE-GMe-v-80">
          <mxGeometry x="60" width="60" height="40" as="geometry">
            <mxRectangle width="60" height="40" as="alternateBounds" />
          </mxGeometry>
        </mxCell>
        <mxCell id="Dd918ebrh1rIjE-GMe-v-132" value="" style="endArrow=classic;html=1;rounded=0;exitX=1;exitY=0.5;exitDx=0;exitDy=0;entryX=0;entryY=1;entryDx=0;entryDy=0;fillColor=#f8cecc;strokeColor=#b85450;" edge="1" parent="1" source="Dd918ebrh1rIjE-GMe-v-5" target="Dd918ebrh1rIjE-GMe-v-6">
          <mxGeometry width="50" height="50" relative="1" as="geometry">
            <mxPoint x="390" y="590" as="sourcePoint" />
            <mxPoint x="440" y="540" as="targetPoint" />
          </mxGeometry>
        </mxCell>
        <mxCell id="Dd918ebrh1rIjE-GMe-v-133" value="" style="endArrow=classic;html=1;rounded=0;exitX=1;exitY=0.5;exitDx=0;exitDy=0;" edge="1" parent="1" source="Dd918ebrh1rIjE-GMe-v-1" target="Dd918ebrh1rIjE-GMe-v-3">
          <mxGeometry width="50" height="50" relative="1" as="geometry">
            <mxPoint x="390" y="590" as="sourcePoint" />
            <mxPoint x="440" y="540" as="targetPoint" />
          </mxGeometry>
        </mxCell>
        <mxCell id="Dd918ebrh1rIjE-GMe-v-134" value="" style="endArrow=classic;html=1;rounded=0;exitX=1;exitY=0.5;exitDx=0;exitDy=0;entryX=0;entryY=0.5;entryDx=0;entryDy=0;" edge="1" parent="1" source="Dd918ebrh1rIjE-GMe-v-3" target="Dd918ebrh1rIjE-GMe-v-137">
          <mxGeometry width="50" height="50" relative="1" as="geometry">
            <mxPoint x="390" y="590" as="sourcePoint" />
            <mxPoint x="440" y="560" as="targetPoint" />
          </mxGeometry>
        </mxCell>
        <mxCell id="Dd918ebrh1rIjE-GMe-v-136" value="" style="group;dashed=1;dashPattern=12 12;strokeWidth=4;" vertex="1" connectable="0" parent="1">
          <mxGeometry x="1020" y="-10" width="180" height="180" as="geometry" />
        </mxCell>
        <mxCell id="Dd918ebrh1rIjE-GMe-v-137" value="103" style="ellipse;whiteSpace=wrap;html=1;aspect=fixed;" vertex="1" parent="Dd918ebrh1rIjE-GMe-v-136">
          <mxGeometry width="180" height="180" as="geometry" />
        </mxCell>
        <mxCell id="Dd918ebrh1rIjE-GMe-v-138" value="" style="shape=table;startSize=0;container=1;collapsible=0;childLayout=tableLayout;fontSize=16;" vertex="1" parent="Dd918ebrh1rIjE-GMe-v-136">
          <mxGeometry x="30" y="30" width="120" height="120" as="geometry" />
        </mxCell>
        <mxCell id="Dd918ebrh1rIjE-GMe-v-139" value="" style="shape=tableRow;horizontal=0;startSize=0;swimlaneHead=0;swimlaneBody=0;strokeColor=inherit;top=0;left=0;bottom=0;right=0;collapsible=0;dropTarget=0;fillColor=none;points=[[0,0.5],[1,0.5]];portConstraint=eastwest;fontSize=16;" vertex="1" parent="Dd918ebrh1rIjE-GMe-v-138">
          <mxGeometry width="120" height="40" as="geometry" />
        </mxCell>
        <mxCell id="Dd918ebrh1rIjE-GMe-v-140" value="20" style="shape=partialRectangle;html=1;whiteSpace=wrap;connectable=0;strokeColor=inherit;overflow=hidden;fillColor=none;top=0;left=0;bottom=0;right=0;pointerEvents=1;fontSize=16;" vertex="1" parent="Dd918ebrh1rIjE-GMe-v-139">
          <mxGeometry width="60" height="40" as="geometry">
            <mxRectangle width="60" height="40" as="alternateBounds" />
          </mxGeometry>
        </mxCell>
        <mxCell id="Dd918ebrh1rIjE-GMe-v-141" value="20" style="shape=partialRectangle;html=1;whiteSpace=wrap;connectable=0;strokeColor=inherit;overflow=hidden;fillColor=none;top=0;left=0;bottom=0;right=0;pointerEvents=1;fontSize=16;" vertex="1" parent="Dd918ebrh1rIjE-GMe-v-139">
          <mxGeometry x="60" width="60" height="40" as="geometry">
            <mxRectangle width="60" height="40" as="alternateBounds" />
          </mxGeometry>
        </mxCell>
        <mxCell id="Dd918ebrh1rIjE-GMe-v-142" style="shape=tableRow;horizontal=0;startSize=0;swimlaneHead=0;swimlaneBody=0;strokeColor=inherit;top=0;left=0;bottom=0;right=0;collapsible=0;dropTarget=0;fillColor=none;points=[[0,0.5],[1,0.5]];portConstraint=eastwest;fontSize=16;" vertex="1" parent="Dd918ebrh1rIjE-GMe-v-138">
          <mxGeometry y="40" width="120" height="40" as="geometry" />
        </mxCell>
        <mxCell id="Dd918ebrh1rIjE-GMe-v-143" value="&lt;b&gt;106&lt;/b&gt;" style="shape=partialRectangle;html=1;whiteSpace=wrap;connectable=0;strokeColor=inherit;overflow=hidden;fillColor=none;top=0;left=0;bottom=0;right=0;pointerEvents=1;fontSize=16;" vertex="1" parent="Dd918ebrh1rIjE-GMe-v-142">
          <mxGeometry width="60" height="40" as="geometry">
            <mxRectangle width="60" height="40" as="alternateBounds" />
          </mxGeometry>
        </mxCell>
        <mxCell id="Dd918ebrh1rIjE-GMe-v-144" value="0" style="shape=partialRectangle;html=1;whiteSpace=wrap;connectable=0;strokeColor=inherit;overflow=hidden;fillColor=none;top=0;left=0;bottom=0;right=0;pointerEvents=1;fontSize=16;" vertex="1" parent="Dd918ebrh1rIjE-GMe-v-142">
          <mxGeometry x="60" width="60" height="40" as="geometry">
            <mxRectangle width="60" height="40" as="alternateBounds" />
          </mxGeometry>
        </mxCell>
        <mxCell id="Dd918ebrh1rIjE-GMe-v-145" value="" style="shape=tableRow;horizontal=0;startSize=0;swimlaneHead=0;swimlaneBody=0;strokeColor=inherit;top=0;left=0;bottom=0;right=0;collapsible=0;dropTarget=0;fillColor=none;points=[[0,0.5],[1,0.5]];portConstraint=eastwest;fontSize=16;" vertex="1" parent="Dd918ebrh1rIjE-GMe-v-138">
          <mxGeometry y="80" width="120" height="40" as="geometry" />
        </mxCell>
        <mxCell id="Dd918ebrh1rIjE-GMe-v-146" value="20" style="shape=partialRectangle;html=1;whiteSpace=wrap;connectable=0;strokeColor=inherit;overflow=hidden;fillColor=none;top=0;left=0;bottom=0;right=0;pointerEvents=1;fontSize=16;" vertex="1" parent="Dd918ebrh1rIjE-GMe-v-145">
          <mxGeometry width="60" height="40" as="geometry">
            <mxRectangle width="60" height="40" as="alternateBounds" />
          </mxGeometry>
        </mxCell>
        <mxCell id="Dd918ebrh1rIjE-GMe-v-147" value="20" style="shape=partialRectangle;html=1;whiteSpace=wrap;connectable=0;strokeColor=inherit;overflow=hidden;fillColor=none;top=0;left=0;bottom=0;right=0;pointerEvents=1;fontSize=16;" vertex="1" parent="Dd918ebrh1rIjE-GMe-v-145">
          <mxGeometry x="60" width="60" height="40" as="geometry">
            <mxRectangle width="60" height="40" as="alternateBounds" />
          </mxGeometry>
        </mxCell>
        <mxCell id="Dd918ebrh1rIjE-GMe-v-149" value="&lt;font style=&quot;font-size: 18px;&quot;&gt;Ψευδοδραστηριότητα&lt;/font&gt;" style="text;html=1;align=center;verticalAlign=middle;whiteSpace=wrap;rounded=0;" vertex="1" parent="1">
          <mxGeometry x="1080" y="-40" width="60" height="30" as="geometry" />
        </mxCell>
        <mxCell id="Dd918ebrh1rIjE-GMe-v-151" value="" style="endArrow=classic;html=1;rounded=0;exitX=0.5;exitY=1;exitDx=0;exitDy=0;entryX=0.5;entryY=1;entryDx=0;entryDy=0;" edge="1" parent="1" target="Dd918ebrh1rIjE-GMe-v-137">
          <mxGeometry width="50" height="50" relative="1" as="geometry">
            <mxPoint x="1110" y="290" as="sourcePoint" />
            <mxPoint x="360" y="390" as="targetPoint" />
          </mxGeometry>
        </mxCell>
        <mxCell id="Dd918ebrh1rIjE-GMe-v-153" value="ΣΠ = 7" style="text;html=1;align=center;verticalAlign=middle;whiteSpace=wrap;rounded=0;" vertex="1" parent="1">
          <mxGeometry x="150" y="180" width="60" height="30" as="geometry" />
        </mxCell>
        <mxCell id="Dd918ebrh1rIjE-GMe-v-154" value="ΣΠ =3" style="text;html=1;align=center;verticalAlign=middle;whiteSpace=wrap;rounded=0;" vertex="1" parent="1">
          <mxGeometry x="150" y="570" width="60" height="30" as="geometry" />
        </mxCell>
        <mxCell id="Dd918ebrh1rIjE-GMe-v-155" value="ΣΠ = 0" style="text;html=1;align=center;verticalAlign=middle;whiteSpace=wrap;rounded=0;" vertex="1" parent="1">
          <mxGeometry x="150" y="930" width="60" height="30" as="geometry" />
        </mxCell>
        <mxCell id="Dd918ebrh1rIjE-GMe-v-158" value="ΣΠ = 0" style="text;html=1;align=center;verticalAlign=middle;whiteSpace=wrap;rounded=0;" vertex="1" parent="1">
          <mxGeometry x="1080" y="500" width="60" height="30" as="geometry" />
        </mxCell>
        <mxCell id="Dd918ebrh1rIjE-GMe-v-159" value="ΣΠ = 7" style="text;html=1;align=center;verticalAlign=middle;whiteSpace=wrap;rounded=0;" vertex="1" parent="1">
          <mxGeometry x="690" y="100" width="60" height="30" as="geometry" />
        </mxCell>
        <mxCell id="Dd918ebrh1rIjE-GMe-v-160" value="ΣΠ = 3" style="text;html=1;align=center;verticalAlign=middle;whiteSpace=wrap;rounded=0;" vertex="1" parent="1">
          <mxGeometry x="690" y="500" width="60" height="30" as="geometry" />
        </mxCell>
        <mxCell id="Dd918ebrh1rIjE-GMe-v-161" value="ΣΠ = 0" style="text;html=1;align=center;verticalAlign=middle;whiteSpace=wrap;rounded=0;" vertex="1" parent="1">
          <mxGeometry x="1130" y="180" width="60" height="30" as="geometry" />
        </mxCell>
      </root>
    </mxGraphModel>
  </diagram>
</mxfile>
